<svg width="25" height="24" viewBox="0 0 25 24" fill="none" xmlns="http://www.w3.org/2000/svg">
<g clip-path="url(#clip0_2159_413)">
<path d="M2.3335 22C2.3335 19.8783 3.17635 17.8434 4.67664 16.3431C6.17693 14.8429 8.21176 14 10.3335 14C12.4552 14 14.4901 14.8429 15.9904 16.3431C17.4906 17.8434 18.3335 19.8783 18.3335 22H16.3335C16.3335 20.4087 15.7014 18.8826 14.5761 17.7574C13.4509 16.6321 11.9248 16 10.3335 16C8.7422 16 7.21607 16.6321 6.09086 17.7574C4.96564 18.8826 4.3335 20.4087 4.3335 22H2.3335ZM10.3335 13C7.0185 13 4.3335 10.315 4.3335 7C4.3335 3.685 7.0185 1 10.3335 1C13.6485 1 16.3335 3.685 16.3335 7C16.3335 10.315 13.6485 13 10.3335 13ZM10.3335 11C12.5435 11 14.3335 9.21 14.3335 7C14.3335 4.79 12.5435 3 10.3335 3C8.1235 3 6.3335 4.79 6.3335 7C6.3335 9.21 8.1235 11 10.3335 11ZM18.6175 14.703C20.0228 15.3359 21.2155 16.3612 22.0521 17.6557C22.8887 18.9502 23.3337 20.4587 23.3335 22H21.3335C21.3337 20.844 21 19.7125 20.3726 18.7416C19.7451 17.7707 18.8506 17.0017 17.7965 16.527L18.6165 14.703H18.6175ZM17.9295 3.413C18.937 3.8283 19.7985 4.53354 20.4045 5.43923C21.0106 6.34492 21.3339 7.41024 21.3335 8.5C21.3339 9.87233 20.8212 11.1952 19.896 12.2088C18.9709 13.2224 17.7002 13.8535 16.3335 13.978V11.965C17.0744 11.8589 17.7618 11.518 18.2948 10.9925C18.8278 10.4669 19.1782 9.78432 19.2947 9.04493C19.4111 8.30555 19.2875 7.5483 18.9419 6.88435C18.5963 6.22041 18.0469 5.68475 17.3745 5.356L17.9295 3.413Z" fill="#FFA800"/>
</g>
<defs>
<clipPath id="clip0_2159_413">
<rect width="24" height="24" fill="white" transform="translate(0.333496)"/>
</clipPath>
</defs>
</svg>
